PathFileType	4	(X/Y/Z)	TRAIL_071_Static_01_markers.trc
DataRate	CameraRate	NumFrames	NumMarkers	Units	OrigDataRate	OrigDataStartFrame	OrigNumFrames
200	200	4	48	mm	200	98	391
Frame#	Time	RSH			LSH			C7			LELB			LWR			RELB			RWR			RASI			LASI			SACR			P1			P2			LTHLP			LTHLD			LTHAP			LTHAD			LLEPI			LPAT			LMEPI			LTIAP			LTIAD			LTILAT			LLMAL			LMMAL			LHEEL			LMFS			LMFL			LP5MT			LP1MT			LTOE			RTHLP			RTHLD			RTHAP			RTHAD			RLEPI			RPAT			RMEPI			RTIAP			RTIAD			RTILAT			RLMAL			RMMAL			RHEEL			RMFS			RMFL			RP5MT			RP1MT			RTOE			
		X1	Y1	Z1	X2	Y2	Z2	X3	Y3	Z3	X4	Y4	Z4	X5	Y5	Z5	X6	Y6	Z6	X7	Y7	Z7	X8	Y8	Z8	X9	Y9	Z9	X10	Y10	Z10	X11	Y11	Z11	X12	Y12	Z12	X13	Y13	Z13	X14	Y14	Z14	X15	Y15	Z15	X16	Y16	Z16	X17	Y17	Z17	X18	Y18	Z18	X19	Y19	Z19	X20	Y20	Z20	X21	Y21	Z21	X22	Y22	Z22	X23	Y23	Z23	X24	Y24	Z24	X25	Y25	Z25	X26	Y26	Z26	X27	Y27	Z27	X28	Y28	Z28	X29	Y29	Z29	X30	Y30	Z30	X31	Y31	Z31	X32	Y32	Z32	X33	Y33	Z33	X34	Y34	Z34	X35	Y35	Z35	X36	Y36	Z36	X37	Y37	Z37	X38	Y38	Z38	X39	Y39	Z39	X40	Y40	Z40	X41	Y41	Z41	X42	Y42	Z42	X43	Y43	Z43	X44	Y44	Z44	X45	Y45	Z45	X46	Y46	Z46	X47	Y47	Z47	X48	Y48	Z48
98	        0.4850000143	      123.5994490780	     1519.3723440170	      -59.1949820518	     -146.2448892198	     1528.2558202744	      -49.6823191643	      -12.3641789905	     1517.3746347427	       -1.3843774796	     -425.6383833490	     1400.9983539581	       -2.5109052658	     -682.2181400858	     1382.2758197784	      -84.6458077431	      408.0916288294	     1400.0934362411	      -36.7482304573	      657.2237553992	     1425.3532886505	     -160.9909534454	      134.2547181048	     1000.3895759583	     -154.5594334602	     -132.2569456897	     1014.7652626038	     -180.1088452339	       -7.5212461888	     1014.1365528107	       14.3335461617	      -51.3936412535	     1016.0471200943	       12.6931667328	       33.2893560626	     1015.4896974564	       14.5214796066	     -199.6531394325	      726.4899015427	     -109.2900633812	     -190.0587138734	      615.8805489540	     -107.8737974167	     -122.3622617326	      711.4755511284	     -209.8842263222	     -124.7362998329	      608.6170673370	     -186.9687438011	     -184.2748281560	      520.0669169426	     -105.2013635635	     -139.8135033451	      501.8900036812	     -161.2904667854	      -75.3424522482	      486.7258369923	     -107.2292327881	     -154.9286899171	      351.2163758278	     -129.6697258949	     -168.0277940832	      247.1003979445	     -118.3056235313	     -220.5170598827	      309.4066977501	      -66.0949945450	     -210.7144352995	      109.9978387356	      -62.4496340752	     -131.2920507989	      106.6092178226	      -87.8810882568	     -171.2540891967	       60.8471147716	       -1.4109611511	     -173.1960383258	       87.7630934119	     -175.0319600105	     -261.4115533434	       42.5840914249	     -155.5561423302	     -262.5056860052	       38.1846502423	     -220.1340794563	     -157.7808168731	       45.0417920947	     -218.7476754189	     -186.5300891004	       52.6771843433	     -257.9284906387	      187.5799688496	      729.4301986694	      -90.7962322235	      178.5131338038	      633.2002878189	      -88.3901715279	      119.3749475278	      721.5675711632	     -198.1877684593	      115.7010215320	      628.0928254128	     -180.6645989418	      171.4807691969	      515.2009725571	      -89.0005230904	      128.1917336382	      494.9277341366	     -148.8729119301	       55.4030480780	      487.4397516251	     -100.3354787827	      150.4823657669	      359.6793115139	     -115.2188777924	      157.0849957861	      251.1440515518	      -98.5410213470	      205.5993321337	      326.3868987560	      -44.5287227631	      195.4045983948	      106.2562093139	      -25.8536934853	      119.2283275523	      118.0698871613	      -58.2994222641	      152.0496251978	       61.6529993713	       27.9958248138	      159.9176022210	       86.1859694123	     -148.0559706688	      243.7778803505	       39.1495227814	     -128.2919049263	      247.0040264525	       37.0922908187	     -184.8976016045	      143.0392655529	       41.1640852690	     -200.7983922958	      176.6146662630	       52.4061955512	     -245.1433539391
99	        0.4900000095	      123.5573085942	     1519.3880796432	      -59.0672492981	     -146.2840792738	     1528.2673835754	      -49.4993925095	      -12.3899617247	     1517.3693895340	       -1.2578368187	     -425.6844577394	     1401.0297060013	       -2.3909211159	     -682.2755393587	     1382.4554681778	      -84.7150087357	      408.0166759886	     1400.0436067581	      -36.5080237389	      657.1600976386	     1425.3329038620	     -160.8385443687	      134.1952624716	     1000.3598928452	     -154.4478535652	     -132.2868970237	     1014.7750377655	     -180.0756454468	       -7.6106224224	     1014.1805410385	       14.4430398941	      -51.4782574974	     1016.0825252533	       12.7329230309	       33.1999751725	     1015.5595541000	       14.6405100822	     -199.7163352571	      726.4780402184	     -109.2545390129	     -190.0922116838	      615.8856153488	     -107.8454852104	     -122.3698017202	      711.4754915237	     -209.8287940025	     -124.7698646985	      608.6052060127	     -186.9745254517	     -184.2905190788	      520.0442671776	     -105.1484942436	     -139.8429927431	      501.8900036812	     -161.2590551376	      -75.3616747461	      486.7248833179	     -107.1654558182	     -154.9151745639	      351.1976003647	     -129.6411752701	     -168.0162903867	      247.0922917128	     -118.2975172997	     -220.5299195848	      309.3770146370	      -66.0593509674	     -210.7313481174	      109.9861413240	      -62.4515414238	     -131.2931385837	      106.6188365221	      -87.8694653511	     -171.1618808113	       60.8065128326	       -1.3867616653	     -173.1758770547	       87.7663791180	     -175.0104427338	     -261.3053080640	       42.4635484815	     -155.5723547935	     -262.4762413107	       38.2035225630	     -220.1609015465	     -157.7576455675	       45.0506545603	     -218.7275290489	     -186.5201798282	       52.6768602431	     -257.9150795937	      187.5166240134	      729.4509410858	      -90.5909538269	      178.4418466486	      633.2037448883	      -88.1438851357	      119.3070131339	      721.5451002121	     -197.9686617851	      115.6800034441	      628.0972361565	     -180.4481744766	      171.4323702254	      515.2354240417	      -88.7370705605	      128.1970086493	      494.9619770050	     -148.6780047417	       55.3886423804	      487.4611198902	     -100.0956892967	      150.4171582856	      359.6836328506	     -115.0539517403	      157.0500376620	      251.1537671089	      -98.4275937080	      205.6069913306	      326.4258801937	      -44.4000959396	      195.4027208485	      106.2560752034	      -25.8564949036	      119.1909405388	      118.0488839746	      -58.2657456398	      152.5541487135	       61.5354515612	       28.0343294144	      159.8616781630	       86.1477851868	     -147.9855179787	      243.7574061551	       39.1511805356	     -128.2944083214	      247.0216992297	       37.1034555137	     -184.9193572998	      143.0338713326	       41.1634519696	     -200.7862329483	      176.6257229247	       52.4309165776	     -245.1412081718
100	        0.4950000048	      123.5182899036	     1519.4005966187	      -58.9359402657	     -146.3243720136	     1528.2801389694	      -49.3274331093	      -12.4415718965	     1517.3645019531	       -1.1376738548	     -425.7357177339	     1401.0243415833	       -2.3069977760	     -682.2843012415	     1382.4619054794	      -84.6857428551	      408.1639590659	     1400.0113010406	      -36.7688536644	      657.0988240637	     1425.2891540527	     -160.7528328896	      134.1213825144	     1000.3584623337	     -154.3208956718	     -132.3437300525	     1014.7823095322	     -179.9916625023	       -7.6891971767	     1014.2172574997	       14.5289897919	      -51.5941624544	     1016.1333084106	       12.8533840179	       33.1393423476	     1015.5513286591	       14.6947503090	     -199.7585502468	      726.4636754990	     -109.2398762703	     -190.0926289163	      615.8725619316	     -107.8442931175	     -122.3639604650	      711.5007638931	     -209.7998261452	     -124.7814801536	      608.5801720619	     -186.9523525238	     -184.3368765913	      520.0484991074	     -105.1427125931	     -139.8720947109	      501.8609762192	     -161.2179279327	      -75.3809493981	      486.7072403431	     -107.0943474770	     -154.9818870626	      351.2395620346	     -129.7479867935	     -168.0539456211	      247.0762282610	     -118.2745099068	     -220.5506620012	      309.3722164631	      -66.0744905472	     -210.7215729557	      109.9664643407	      -62.4527335167	     -131.2851217590	      106.6156551242	      -87.8771543503	     -171.1914000116	       60.8234964311	       -1.4188289642	     -173.1754002176	       87.7659171820	     -175.0116348267	     -261.4730057321	       42.6146425307	     -155.5944681168	     -262.4974605642	       38.2263213396	     -220.1601862907	     -157.7596572242	       45.0490973890	     -218.7240123749	     -186.5213421188	       52.6853501797	     -257.9228281975	      187.4725463786	      729.4275164604	      -90.4100537300	      178.4078571000	      633.2277059555	      -87.9414677620	      119.2889454760	      721.5055227280	     -197.7476477623	      115.6125086345	      628.0750632286	     -180.1714897156	      171.3790985741	      515.2460932732	      -88.5220766068	      128.1133833327	      494.9933886528	     -148.4093666077	       55.3340892293	      487.4516725540	      -99.8789072037	      150.3936889567	      359.7086369991	     -114.9053573608	      157.0173296132	      251.1931657791	      -98.3440279961	      205.5791261591	      326.4366090298	      -44.2590117455	      195.3895929255	      106.2453910708	      -25.8104205132	      119.2411723532	      118.0576980114	      -58.2764744759	      152.0768645205	       61.6439692676	       28.0141830444	      159.8689648308	       86.1739814281	     -147.9545831680	      243.7625619568	       39.1430109739	     -128.2862424850	      247.0166775383	       37.1232628822	     -184.8816275597	      143.0082562365	       41.1805883050	     -200.8074522018	      176.6049507060	       52.4353384972	     -245.1372146606
101	        0.5000000000	      123.4777959980	     1519.4132328033	      -58.7922930717	     -146.3572737775	     1528.3048152924	      -49.1740703583	      -12.4575524605	     1517.3668861389	       -0.9843111038	     -425.7999119363	     1401.0370969772	       -2.2161602974	     -682.3039111696	     1382.6445341110	      -84.7764611244	      407.9944434561	     1400.0365734100	      -36.3553166389	      657.0400538840	     1425.2874851227	     -160.6610417366	      134.0748163857	     1000.3415346146	     -154.2006731033	     -132.3912349544	     1014.7688388824	     -179.9391508102	       -7.7840398080	     1014.2327547073	       14.5954489708	      -51.6744759880	     1016.1700248718	       12.9089355469	       33.0389345982	     1015.6043767929	       14.8658156395	     -199.8002585970	      726.4890074730	     -109.3015074730	     -190.1476440034	      615.8708333969	     -107.8290343285	     -122.3673579298	      711.5185260773	     -209.7557187080	     -124.8037052355	      608.5472106934	     -186.9710683823	     -184.3951550327	      520.0399756432	     -105.1227450371	     -139.8961898885	      501.8296837807	     -161.1741185188	      -75.4234475098	      486.6950213909	     -107.0294380188	     -154.9675670467	      351.1958122253	     -129.6418309212	     -168.0531260572	      247.0972836018	     -118.2482242584	     -220.5615994535	      309.3744814396	      -66.0427212715	     -210.7279357515	      109.9768057466	      -62.4458789825	     -131.3003358446	      106.6254600883	      -87.8536701202	     -171.2560412489	       60.8386471868	       -1.3937950134	     -173.1798556648	       87.7637490630	     -175.0147342682	     -261.3142487608	       42.5262786448	     -155.5242538452	     -262.4815759264	       38.2309481502	     -220.1581597328	     -157.7629354797	       45.0604520738	     -218.7190651894	     -186.5260359846	       52.6964999735	     -257.9396367073	      187.4276938834	      729.4570803642	      -90.1864767075	      178.3291044630	      633.2599520683	      -87.6964926720	      119.2578840055	      721.4851975441	     -197.5263357162	      115.6028228797	      628.0633211136	     -179.9335479736	      171.2908986010	      515.2391195297	      -88.2498621941	      128.0799600281	      495.0283765793	     -148.1891274452	       55.2837344803	      487.4593615532	      -99.6913313866	      150.3219398655	      359.7755432129	     -114.8377060890	      157.0080163874	      251.2316107750	      -98.2630252838	      205.5414113202	      326.4190554619	      -44.1315770149	      195.3732165493	      106.2550619245	      -25.8036255836	      119.2126962342	      118.0723458529	      -58.2612752914	      152.0613226094	       61.6165734828	       28.0112624168	      159.8974111475	       86.2047150731	     -147.9696631432	      243.7447848715	       39.1575545073	     -128.2973289490	      246.9988557496	       37.1370576322	     -184.9050521851	      143.0342885651	       41.2136577070	     -200.7855176926	      176.5928211607	       52.4694584310	     -245.1164126396
